:version 1.10
:name ASF
:units
  mass 1
  length 1
  angle deg
:documentation
  ASF file generated by Kaydara
:root
  axis xyz
  order  tx ty tz rx ry rz
  position 0 0 0
  orientation 0 0 0
:bonedata
  begin
    id 1
    name RightUpLegDummy
    direction -1 2.30186e-007 8.31532e-007
    length 4.04083
    axis 0 0 0 xyz
  end
  begin
    id 2
    name RightUpLeg
    direction -0.000919234 -0.999985 0.00544864
    length 17.4221
    axis -3.80308 -0.00076134 -0.0523649 xyz
    dof rx ry rz
  end
  begin
    id 3
    name RightLeg
    direction -0.000919271 -0.999984 -0.00555045
    length 17.1239
    axis 4.00314 0.0181274 -0.183583 xyz
    dof rx ry rz
  end
  begin
    id 4
    name RightFoot
    direction -2.57843e-005 -4.04509e-007 1
    length 6.72091
    axis 8.18909e-005 -0.122003 -0.403008 xyz
    dof rx ry rz
  end
  begin
    id 5
    name RightToes
    direction 0.00116825 -0.014069 0.9999
    length 3.85082
    axis 0.000514414 0.540638 -0.356797 xyz
    dof rx ry rz
  end
  begin
    id 6
    name SpineDummy
    direction 0.0168869 0.966876 -0.254689
    length 6.99894
    axis 0 0 0 xyz
  end
  begin
    id 7
    name Spine
    direction -0.0132008 0.999903 0.00446247
    length 11.1999
    axis -0.00148109 0.00725429 0.756411 xyz
    dof rx ry rz
  end
  begin
    id 8
    name Spine1
    direction 0 0 0
    length 0
    axis -0.000934958 0.0245693 1.46543 xyz
    dof rx ry rz
  end
  begin
    id 9
    name HEadDummy
    direction -0.0255732 0.999672 0.00128215
    length 3.43865
    axis -0.000934958 0.0245693 1.46543 xyz
  end
  begin
    id 10
    name HEad
    direction -0.0472656 0.980052 0.19304
    length 5.12695
    axis -0.000934954 0.0245693 1.46543 xyz
    dof rx ry rz
  end
  begin
    id 11
    name LeftShoulder1Dummy
    direction 0.953098 0.301717 -0.023914
    length 3.68488
    axis -0.000934958 0.0245693 1.46543 xyz
  end
  begin
    id 12
    name LeftShoulder1
    direction 0.962466 0.271167 0.0112566
    length 3.13809
    axis -0.000934958 0.0245693 1.46543 xyz
    dof rx ry rz
  end
  begin
    id 13
    name LeftArm
    direction 0.999943 0.00455037 -0.00961766
    length 11.3419
    axis -23.1648 0.685459 1.22814 xyz
    dof rx ry rz
  end
  begin
    id 14
    name LeftForeArm
    direction 0.999332 0.0131969 0.0340885
    length 8.70632
    axis -9.90633 0.618216 0.0826942 xyz
    dof rx ry rz
  end
  begin
    id 15
    name LeftHand
    direction 0.994373 -0.0366703 0.0993905
    length 5.32135
    axis 0.00675269 0.680415 0.445699 xyz
    dof rx ry rz
  end
  begin
    id 16
    name RightShoulderDummy
    direction -0.967298 0.252589 -0.0230903
    length 3.68488
    axis -0.000934958 0.0245693 1.46543 xyz
  end
  begin
    id 17
    name RightShoulder
    direction -0.975062 0.221602 0.0120823
    length 3.13809
    axis 0.216257 0.0246515 1.45863 xyz
    dof rx ry rz
  end
  begin
    id 18
    name RightArm
    direction -0.99886 -0.00851186 -0.0469687
    length 10.3947
    axis -23.196 0.23503 -0.532632 xyz
    dof rx ry rz
  end
  begin
    id 19
    name RightForeArm
    direction -0.99909 0.00114866 0.0426317
    length 8.68355
    axis -9.91764 -0.134943 0.610517 xyz
    dof rx ry rz
  end
  begin
    id 20
    name RightHand
    direction -0.992888 -0.0489538 0.10852
    length 5.28593
    axis -0.00275396 -0.197403 0.246414 xyz
    dof rx ry rz
  end
  begin
    id 21
    name LeftUpLegDummy
    direction 1 -2.30186e-007 -8.31532e-007
    length 4.04083
    axis 0 0 0 xyz
  end
  begin
    id 22
    name LeftUpLeg
    direction -0.000920097 -1 2.79241e-006
    length 17.4221
    axis -3.48782 0.00143434 -0.0532288 xyz
    dof rx ry rz
  end
  begin
    id 23
    name LeftLeg
    direction -0.000920097 -1 2.7912e-006
    length 17.1239
    axis 3.68162 -0.00806512 -0.0529896 xyz
    dof rx ry rz
  end
  begin
    id 24
    name LeftFoot
    direction -2.57845e-005 -3.987e-007 1
    length 6.72091
    axis 3.02372e-005 -0.00147829 -0.214229 xyz
    dof rx ry rz
  end
  begin
    id 25
    name LeftToes
    direction 0.00813577 -0.00488255 0.999955
    length 3.85048
    axis 3.89895e-005 -0.0014783 -0.214229 xyz
    dof rx ry rz
  end
:hierarchy
  begin
    root RightUpLegDummy SpineDummy LeftUpLegDummy
    RightUpLegDummy RightUpLeg
    RightUpLeg RightLeg
    RightLeg RightFoot
    RightFoot RightToes
    SpineDummy Spine
    Spine Spine1
    Spine1 HEadDummy LeftShoulder1Dummy RightShoulderDummy
    HEadDummy HEad
    LeftShoulder1Dummy LeftShoulder1
    LeftShoulder1 LeftArm
    LeftArm LeftForeArm
    LeftForeArm LeftHand
    RightShoulderDummy RightShoulder
    RightShoulder RightArm
    RightArm RightForeArm
    RightForeArm RightHand
    LeftUpLegDummy LeftUpLeg
    LeftUpLeg LeftLeg
    LeftLeg LeftFoot
    LeftFoot LeftToes
  end

:SAMPLES-PER-SECOND 30
:FULLY-SPECIFIED
:DEGREES
16
root  -4.95555 34.5818 -32.8887 -171.104 16.3951 -177.706
RightUpLeg  -9.65118 -9.25512 -1.20393
RightLeg  4.37989 3.74509 0.0465921
RightFoot  8.99477 -0.0199016 0.673352
RightToes  -30.5633 -0.153853 -0.257969
Spine  -2.29982 -1.57046 0.65352
Spine1  -4.67305 -3.0934 1.83962
HEad  -90.5839 -53.6586 27.5937
LeftShoulder1  -1.94126e-019 -3.10601e-018 -2.51263e-017
LeftArm  -11.3914 23.5427 -79.1366
LeftForeArm  33.069 -24.118 -3.72266
LeftHand  -0.518802 -1.8679 8.48389
RightShoulder  -4.96962e-017 0 -2.36833e-017
RightArm  -38.6535 -21.8799 70.9711
RightForeArm  61.7422 11.2822 1.51556
RightHand  -0.381128 -1.19239 -10.5442
LeftUpLeg  -2.88945 14.7648 7.81438
LeftLeg  4.69496 16.8928 0.293793
LeftFoot  7.28036 -0.134723 2.27778
LeftToes  -27.4984 2.25955e-006 -3.67304e-008
17
root  -4.91931 34.5771 -32.856 -171.07 16.8694 -177.647
RightUpLeg  -9.83481 -8.94424 -1.10092
RightLeg  4.52288 3.92703 0.0586335
RightFoot  8.89899 -0.0212846 0.693108
RightToes  -30.7496 -0.153853 -0.257969
Spine  -2.29245 -1.61619 0.691296
Spine1  -4.65747 -3.18831 1.91267
HEad  -90.6635 -53.9932 27.7879
LeftShoulder1  -1.94126e-019 -3.10601e-018 -2.51263e-017
LeftArm  -11.3034 23.3088 -78.8793
LeftForeArm  33.1536 -24.3596 -3.7817
LeftHand  -0.512925 -1.94246 8.31012
RightShoulder  -4.96962e-017 0 -2.36833e-017
RightArm  -38.8234 -21.9614 70.9875
RightForeArm  61.6934 11.2026 1.51947
RightHand  -0.385605 -1.11524 -10.4186
LeftUpLeg  -2.8445 15.1663 7.91646
LeftLeg  4.74964 16.9489 0.31068
LeftFoot  7.25176 -0.135672 2.27549
LeftToes  -27.5959 2.25955e-006 -3.67304e-008
18
root  -4.87609 34.5726 -32.8081 -170.989 17.146 -177.546
RightUpLeg  -10.1342 -8.88789 -0.913301
RightLeg  4.83761 4.16568 0.0850572
RightFoot  8.72402 -0.0228493 0.715458
RightToes  -30.9541 -0.153853 -0.257969
Spine  -2.30681 -1.68282 0.742773
Spine1  -4.68632 -3.3238 2.01789
HEad  -91.0264 -54.5426 28.0624
LeftShoulder1  -1.94126e-019 -3.10601e-018 -2.51263e-017
LeftArm  -11.2305 23.0896 -78.6501
LeftForeArm  33.154 -24.2457 -3.79062
LeftHand  -0.499591 -1.90164 8.14138
RightShoulder  -4.96962e-017 0 -2.36833e-017
RightArm  -38.8839 -22.0872 70.9911
RightForeArm  61.6685 11.1231 1.523
RightHand  -0.389284 -1.06869 -10.3247
LeftUpLeg  -2.90201 15.4077 8.06982
LeftLeg  4.79157 17.012 0.324071
LeftFoot  7.2742 -0.137757 2.2901
LeftToes  -27.7811 2.25955e-006 -3.67304e-008
19
root  -4.83297 34.5693 -32.748 -170.848 17.2424 -177.421
RightUpLeg  -10.5573 -8.91146 -0.683455
RightLeg  5.3165 4.3477 0.125113
RightFoot  8.47051 -0.0233143 0.722099
RightToes  -31.1379 -0.153853 -0.257969
Spine  -2.28884 -1.76096 0.788232
Spine1  -4.6511 -3.48236 2.10885
HEad  -92.0252 -55.1288 28.8173
LeftShoulder1  -1.94126e-019 -3.10601e-018 -2.51263e-017
LeftArm  -11.2098 22.8771 -78.4032
LeftForeArm  33.2135 -24.077 -3.78671
LeftHand  -0.500586 -1.91421 8.1441
RightShoulder  -4.96962e-017 0 -2.36833e-017
RightArm  -39.0756 -22.0721 71.0453
RightForeArm  61.6727 10.9485 1.5293
RightHand  -0.38894 -1.06231 -10.3691
LeftUpLeg  -3.0821 15.6509 8.2432
LeftLeg  4.86088 16.8767 0.341683
LeftFoot  7.29048 -0.137924 2.27459
LeftToes  -27.9567 2.25955e-006 -3.67304e-008
20
root  -4.79254 34.5683 -32.6872 -170.737 17.3262 -177.351
RightUpLeg  -11.0365 -8.73143 -0.518807
RightLeg  5.94505 4.26627 0.169646
RightFoot  8.08796 -0.0205114 0.682063
RightToes  -30.9717 -0.153853 -0.257969
Spine  -2.25758 -1.81178 0.79847
Spine1  -4.58883 -3.58697 2.13268
HEad  -93.0255 -55.7538 29.5595
LeftShoulder1  -1.94126e-019 -3.10601e-018 -2.51263e-017
LeftArm  -11.2887 22.778 -78.1549
LeftForeArm  33.2612 -23.8106 -3.76135
LeftHand  -0.501105 -1.89344 8.18321
RightShoulder  -4.96962e-017 0 -2.36833e-017
RightArm  -39.5919 -21.9852 71.16
RightForeArm  61.9881 10.6924 1.53508
RightHand  -0.389135 -1.0829 -10.4219
LeftUpLeg  -3.22497 15.9429 8.3666
LeftLeg  4.87588 16.691 0.342331
LeftFoot  7.34114 -0.13835 2.2633
LeftToes  -28.1073 2.25955e-006 -3.67304e-008
21
root  -4.75414 34.5679 -32.6266 -170.691 17.3777 -177.359
RightUpLeg  -11.3657 -8.3021 -0.452586
RightLeg  6.37074 3.91432 0.184872
RightFoot  7.85961 -0.0160997 0.619043
RightToes  -30.9482 -0.153853 -0.257969
Spine  -2.21201 -1.84818 0.762473
Spine1  -4.49771 -3.66292 2.06522
HEad  -94.0304 -56.201 30.278
LeftShoulder1  -1.94126e-019 -3.10601e-018 -2.51263e-017
LeftArm  -11.266 22.7785 -77.8835
LeftForeArm  33.0429 -23.4425 -3.71722
LeftHand  -0.498954 -1.7643 8.30609
RightShoulder  -4.96962e-017 0 -2.36833e-017
RightArm  -40.038 -21.8674 71.3354
RightForeArm  62.2365 10.4503 1.53717
RightHand  -0.379312 -1.18001 -10.38
LeftUpLeg  -3.33648 15.894 8.40643
LeftLeg  4.86887 16.787 0.342225
LeftFoot  7.45002 -0.142417 2.3093
LeftToes  -28.2839 2.25955e-006 -3.67304e-008
22
root  -4.71684 34.5686 -32.5753 -170.616 17.4076 -177.371
RightUpLeg  -11.5342 -8.23231 -0.371245
RightLeg  6.43738 3.88036 0.1878
RightFoot  7.75545 -0.0153034 0.607668
RightToes  -31.0068 -0.153853 -0.257969
Spine  -2.18537 -1.85685 0.723957
Spine1  -4.44426 -3.68277 1.99229
HEad  -94.6623 -56.5115 30.694
LeftShoulder1  -1.94126e-019 -3.10601e-018 -2.51263e-017
LeftArm  -11.3938 22.8617 -77.6954
LeftForeArm  33.1421 -22.8289 -3.63578
LeftHand  -0.501128 -1.76574 8.31068
RightShoulder  -4.96962e-017 0 -2.36833e-017
RightArm  -40.3114 -21.7608 71.4553
RightForeArm  62.6071 10.2135 1.53544
RightHand  -0.379138 -1.16369 -10.3368
LeftUpLeg  -3.46928 15.7704 8.42714
LeftLeg  4.85729 16.9576 0.342227
LeftFoot  7.5765 -0.147473 2.37184
LeftToes  -28.3849 2.25955e-006 -3.67304e-008
23
root  -4.67293 34.5716 -32.5468 -170.551 17.4519 -177.338
RightUpLeg  -11.4915 -8.51605 -0.234858
RightLeg  6.18231 4.19941 0.184422
RightFoot  7.80138 -0.0184343 0.652392
RightToes  -31.1578 -0.153853 -0.257969
Spine  -2.15398 -1.82057 0.694171
Spine1  -4.38085 -3.61288 1.93527
HEad  -95.4344 -56.6457 31.2069
LeftShoulder1  -1.94126e-019 -3.10601e-018 -2.51263e-017
LeftArm  -11.6912 22.9983 -77.6258
LeftForeArm  33.4589 -22.0554 -3.54006
LeftHand  -0.502993 -1.758 8.34938
RightShoulder  -4.96962e-017 0 -2.36833e-017
RightArm  -40.4257 -21.6553 71.5318
RightForeArm  62.974 10.0074 1.53102
RightHand  -0.378638 -1.15232 -10.3523
LeftUpLeg  -3.52763 15.7736 8.51163
LeftLeg  4.82492 17.0185 0.333951
LeftFoot  7.67579 -0.150937 2.41124
LeftToes  -28.3394 2.25955e-006 -3.67304e-008
24
root  -4.6326 34.5789 -32.5258 -170.444 17.5313 -177.303
RightUpLeg  -11.3638 -8.71089 -0.112308
RightLeg  5.68543 4.48771 0.158038
RightFoot  8.05077 -0.0224585 0.709876
RightToes  -31.6755 -0.153853 -0.257969
Spine  -2.14792 -1.75047 0.679624
Spine1  -4.36864 -3.47244 1.9101
HEad  -95.9062 -56.765 31.3987
LeftShoulder1  -1.94126e-019 -3.10601e-018 -2.51263e-017
LeftArm  -12.1113 23.2302 -77.6944
LeftForeArm  33.7285 -21.0771 -3.41092
LeftHand  -0.510653 -1.76213 8.46917
RightShoulder  -4.96962e-017 0 -2.36833e-017
RightArm  -40.4079 -21.5487 71.5293
RightForeArm  63.2626 9.8851 1.52717
RightHand  -0.378917 -1.165 -10.363
LeftUpLeg  -3.71207 15.5058 8.56172
LeftLeg  5.03371 17.3426 0.402366
LeftFoot  7.70263 -0.155336 2.4687
LeftToes  -28.1689 2.25955e-006 -3.67304e-008
25
root  -4.59397 34.5853 -32.516 -170.33 17.6393 -177.26
RightUpLeg  -11.221 -8.94798 0.0215601
RightLeg  5.15872 4.85803 0.126307
RightFoot  8.36939 -0.0278815 0.787337
RightToes  -31.9798 -0.153853 -0.257969
Spine  -2.1431 -1.6518 0.667554
Spine1  -4.35907 -3.27285 1.88782
HEad  -96.2581 -56.9717 31.4689
LeftShoulder1  -1.94126e-019 -3.10601e-018 -2.51263e-017
LeftArm  -12.7152 23.551 -77.8618
LeftForeArm  33.8432 -20.1397 -3.28327
LeftHand  -0.497596 -1.56391 8.47736
RightShoulder  -4.96962e-017 0 -2.36833e-017
RightArm  -40.1358 -21.4146 71.4743
RightForeArm  63.3997 9.84128 1.52539
RightHand  -0.380086 -1.08781 -10.3599
LeftUpLeg  -3.85086 15.7304 8.63553
LeftLeg  5.12226 17.272 0.427069
LeftFoot  7.75956 -0.159591 2.47758
LeftToes  -28.1691 2.25955e-006 -3.67304e-008
26
root  -4.55944 34.5897 -32.52 -170.206 17.6342 -177.223
RightUpLeg  -11.0198 -8.97902 0.127612
RightLeg  4.55441 4.83819 0.0747401
RightFoot  8.68647 -0.0296074 0.81199
RightToes  -31.8402 -0.153853 -0.257969
Spine  -2.1554 -1.53059 0.64962
Spine1  -4.3834 -3.02832 1.85539
HEad  -97.0048 -57.0677 31.9282
LeftShoulder1  -1.94126e-019 -3.10601e-018 -2.51263e-017
LeftArm  -13.2613 23.9058 -78.0859
LeftForeArm  34.0691 -19.1194 -3.13816
LeftHand  -0.510647 -1.59832 8.65503
RightShoulder  -4.96962e-017 0 -2.36833e-017
RightArm  -39.7576 -21.3436 71.389
RightForeArm  63.3356 9.91213 1.52802
RightHand  -0.383303 -1.07931 -10.2831
LeftUpLeg  -3.85303 15.7949 8.69515
LeftLeg  4.90438 17.2483 0.361895
LeftFoot  8.01548 -0.169337 2.55478
LeftToes  -28.3454 2.25955e-006 -3.67304e-008
